<?xml version="1.0" encoding="UTF-8"?>
<svg xmlns="http://www.w3.org/2000/svg" xmlns:xlink="http://www.w3.org/1999/xlink" viewBox="0 0 192 192" width="192px" height="192px">
<g id="surface42437307">
<path style=" stroke:none;fill-rule:nonzero;fill:rgb(51.764709%,28.627452%,86.274511%);fill-opacity:1;" d="M 144 160 L 120 160 L 116 176 L 76 176 L 72 160 L 48 160 L 50.398438 152 L 141.601562 152 Z M 70 100.441406 C 72.65625 102.535156 75.320312 104.113281 77.113281 105.175781 C 78.640625 106.078125 80.175781 106.96875 81.503906 107.910156 L 83.472656 109.28125 C 89.921875 113.734375 91.929688 115.59375 91.929688 118.503906 C 91.929688 119.9375 91.535156 121.097656 89.503906 124.03125 C 86.824219 121.96875 83.585938 119.800781 79.792969 117.246094 L 75.984375 114.679688 C 68.367188 109.527344 68.359375 109.214844 68.199219 105.351562 C 68.136719 103.953125 69.03125 101.960938 70 100.441406 M 70.886719 80.152344 L 62.320312 90.761719 C 62.320312 90.761719 55.863281 97.703125 56.199219 105.855469 C 56.609375 115.648438 60.726562 118.847656 69.257812 124.625 C 83.128906 134.007812 89.648438 137.679688 85.984375 141.761719 C 89.246094 144.207031 87.207031 142.574219 89.246094 144.207031 C 99.855469 130.335938 103.9375 126.273438 103.9375 118.511719 C 103.9375 107.902344 95.367188 103.007812 88.433594 98.113281 C 81.496094 93.214844 70.070312 89.136719 73.742188 82.199219 C 70.886719 80.152344 70.886719 80.152344 70.886719 80.152344 Z M 92.273438 40.425781 C 94.023438 41.894531 95.640625 42.929688 96.671875 43.519531 C 99.671875 45.585938 116.679688 57.273438 121.601562 60.6875 C 126.664062 64.191406 131.847656 68.59375 131.847656 74.566406 C 131.847656 81.710938 128.824219 85.527344 128.839844 85.527344 L 128.425781 85.976562 L 128.054688 86.464844 L 123.640625 92.265625 C 120.617188 88.761719 117.457031 86.558594 116.472656 85.921875 C 110.273438 81.671875 93.320312 70 89.390625 67.054688 C 87.472656 65.617188 84.609375 61.207031 84.609375 54.992188 C 84.609375 50.144531 87.625 46.527344 87.617188 46.527344 L 88.0625 46.046875 L 88.457031 45.519531 L 92.273438 40.425781 M 95.097656 16.65625 L 78.847656 38.328125 C 78.847656 38.328125 72.601562 44.992188 72.601562 54.992188 C 72.601562 64.992188 77.183594 72.910156 82.183594 76.65625 C 87.183594 80.40625 109.6875 95.824219 109.6875 95.824219 C 109.6875 95.824219 118.023438 101.238281 118.023438 107.902344 C 118.023438 114.566406 116.359375 116.238281 115.105469 118.320312 C 117.609375 119.984375 117.609375 119.984375 117.609375 119.984375 L 137.609375 93.734375 C 137.609375 93.734375 143.855469 87.070312 143.855469 74.566406 C 143.855469 62.0625 133.855469 54.566406 128.441406 50.816406 C 123.023438 47.0625 103.023438 33.3125 103.023438 33.3125 C 103.023438 33.3125 95.945312 29.558594 95.945312 24.144531 C 95.945312 19.976562 97.609375 18.726562 97.609375 18.726562 Z M 95.097656 16.65625 "/>
</g>
</svg>
