<svg fill="#000000" xmlns="http://www.w3.org/2000/svg"  viewBox="0 0 24 24" width="192px" height="192px"><path d="M18 20L15 20 14.5 22 9.5 22 9 20 6 20 6.3 19 17.7 19zM8.75 12.555c.332.262.665.459.889.592.191.113.383.224.549.342l.246.171c.806.557 1.057.789 1.057 1.153 0 .179-.049.324-.303.691-.335-.258-.74-.529-1.214-.848l-.476-.321c-.952-.644-.953-.683-.973-1.166C8.517 12.994 8.629 12.745 8.75 12.555M8.861 10.019L7.79 11.345c0 0-.807.868-.765 1.887.051 1.224.566 1.624 1.632 2.346 1.734 1.173 2.549 1.632 2.091 2.142.408.306.153.102.408.306 1.326-1.734 1.836-2.242 1.836-3.212 0-1.326-1.071-1.938-1.938-2.55-.867-.612-2.295-1.122-1.836-1.989C8.861 10.019 8.861 10.019 8.861 10.019L8.861 10.019zM11.534 5.053c.219.184.421.313.55.387.375.258 2.501 1.719 3.116 2.146.633.438 1.281.988 1.281 1.735 0 .893-.378 1.37-.376 1.37 0 0 0 0 0 0l-.052.056-.046.061-.552.725c-.378-.438-.773-.713-.896-.793-.775-.531-2.894-1.99-3.385-2.358-.24-.18-.598-.731-.598-1.508 0-.606.377-1.058.376-1.058 0 0 0 0 0 0l.056-.06.049-.066L11.534 5.053M11.887 2.082L9.856 4.791c0 0-.781.833-.781 2.083s.573 2.24 1.198 2.708c.625.469 3.438 2.396 3.438 2.396s1.042.677 1.042 1.51c0 .833-.208 1.042-.365 1.302.313.208.313.208.313.208l2.5-3.281c0 0 .781-.833.781-2.396s-1.25-2.5-1.927-2.969c-.677-.469-3.177-2.188-3.177-2.188s-.885-.469-.885-1.146c0-.521.208-.677.208-.677L11.887 2.082 11.887 2.082z"/></svg>